<svg xmlns="http://www.w3.org/2000/svg" class="graphdiagram" viewBox="-433.5707396725348 -364.68444460951474 1274.6961357024913 767.2865663380301"><g class="layer relationships"><g class="related-pair"><g class="relationship" transform="translate(-1,0) rotate(0)"><path class="relationship" d="M 117.05120779753479 4 L 587.1461493801996 4 L 587.1461493801996 16 L 619.1461493801996 0 L 587.1461493801996 -16 L 587.1461493801996 -4 L 117.05120779753479 -4 Z" fill="rgb(0, 0, 0)" stroke="rgb(51, 51, 51)" stroke-width="0px"/><text class="type" text-anchor="middle" baseline-shift="30%" alignment-baseline="alphabetic" x="352.0986785888672" y="0" font-size="50px" font-family="&quot;Gill Sans&quot;, &quot;Gill Sans MT&quot;, Calibri, sans-serif">KNOWS</text></g></g></g><g class="layer nodes"><circle class="node node-id-0" r="102.05706779753478" fill="rgb(255, 255, 255)" stroke="rgb(0, 0, 0)" stroke-width="7.98828px" cx="-1" cy="0"/><g class="caption"><text class="caption node" text-anchor="middle" alignment-baseline="central" x="-1" y="0" fill="rgb(51, 51, 51)" font-size="50px" font-family="&quot;Gill Sans&quot;, &quot;Gill Sans MT&quot;, Calibri, sans-serif">Person</text></g><circle class="node node-id-1" r="102.05706779753478" fill="rgb(255, 255, 255)" stroke="rgb(0, 0, 0)" stroke-width="7.98828px" cx="735.1973571777344" cy="0"/><g class="caption"><text class="caption node" text-anchor="middle" alignment-baseline="central" x="735.1973571777344" y="0" fill="rgb(51, 51, 51)" font-size="50px" font-family="&quot;Gill Sans&quot;, &quot;Gill Sans MT&quot;, Calibri, sans-serif">Person</text></g></g><g class="layer properties"><g class="speech-bubble node-speech-bubble" transform="translate(-103.05706779753478,0) "><path class="speech-bubble-outline" transform="scale(-1,1) " d="M 0 0 L 20 -10 L 20 -50 A 10 10 0 0 1 30 -60 L 319.013671875 -60 A 10 10 0 0 1 329.013671875 -50 L 329.013671875 50 A 10 10 0 0 1 319.013671875 60 L 30 60 A 10 10 0 0 1 20 50 L 20 10 Z" fill="rgb(255, 255, 255)" stroke="rgb(0, 0, 0)" stroke-width="2.98828px"/><text class="speech-bubble-content property-key" x="-166.1572265625" y="-25" alignment-baseline="central" text-anchor="end" font-size="50px" font-family="&quot;Gill Sans&quot;, &quot;Gill Sans MT&quot;, Calibri, sans-serif" xml:space="preserve">name: </text><text class="speech-bubble-content property-key" x="-166.1572265625" y="25" alignment-baseline="central" text-anchor="end" font-size="50px" font-family="&quot;Gill Sans&quot;, &quot;Gill Sans MT&quot;, Calibri, sans-serif" xml:space="preserve">born: </text><text class="speech-bubble-content property-value" x="-166.1572265625" y="-25" alignment-baseline="central" font-size="50px" font-family="&quot;Gill Sans&quot;, &quot;Gill Sans MT&quot;, Calibri, sans-serif">string;</text><text class="speech-bubble-content property-value" x="-166.1572265625" y="25" alignment-baseline="central" font-size="50px" font-family="&quot;Gill Sans&quot;, &quot;Gill Sans MT&quot;, Calibri, sans-serif">int</text></g><g class="speech-bubble relationship-speech-bubble" transform="translate(351.0986785888672,0) "><path class="speech-bubble-outline" transform="scale(1,1) " d="M 0 0 L -10 20 L -129.19921875 20 A 10 10 0 0 0 -139.19921875 30 L -139.19921875 130 A 10 10 0 0 0 -129.19921875 140 L 129.19921875 140 A 10 10 0 0 0 139.19921875 130 L 139.19921875 30 A 10 10 0 0 0 129.19921875 20 L 10 20 Z" fill="rgb(255, 255, 255)" stroke="rgb(0, 0, 0)" stroke-width="2.98828px"/><text class="speech-bubble-content property-key" x="-6.9580078125" y="55" alignment-baseline="central" text-anchor="end" font-size="50px" font-family="&quot;Gill Sans&quot;, &quot;Gill Sans MT&quot;, Calibri, sans-serif" xml:space="preserve">ano: </text><text class="speech-bubble-content property-key" x="-6.9580078125" y="105" alignment-baseline="central" text-anchor="end" font-size="50px" font-family="&quot;Gill Sans&quot;, &quot;Gill Sans MT&quot;, Calibri, sans-serif" xml:space="preserve">mes: </text><text class="speech-bubble-content property-value" x="-6.9580078125" y="55" alignment-baseline="central" font-size="50px" font-family="&quot;Gill Sans&quot;, &quot;Gill Sans MT&quot;, Calibri, sans-serif">string,</text><text class="speech-bubble-content property-value" x="-6.9580078125" y="105" alignment-baseline="central" font-size="50px" font-family="&quot;Gill Sans&quot;, &quot;Gill Sans MT&quot;, Calibri, sans-serif">string</text></g></g><g class="layer overlay"><circle class="node overlay" r="106.05120779753479" stroke="none" fill="rgba(255, 255, 255, 0)" cx="-1" cy="0"/><circle class="node ring" r="111.05120779753479" fill="none" stroke="rgba(255, 255, 255, 0)" stroke-width="10px" cx="-1" cy="0"/><circle class="node overlay" r="106.05120779753479" stroke="none" fill="rgba(255, 255, 255, 0)" cx="735.1973571777344" cy="0"/><circle class="node ring" r="111.05120779753479" fill="none" stroke="rgba(255, 255, 255, 0)" stroke-width="10px" cx="735.1973571777344" cy="0"/><path class="relationship overlay" fill="rgba(255, 255, 255, 0)" stroke="rgba(255, 255, 255, 0)" stroke-width="10px" transform="translate(-1,0) rotate(0)" d="M 117.05120779753479 4 L 587.1461493801996 4 L 587.1461493801996 16 L 619.1461493801996 0 L 587.1461493801996 -16 L 587.1461493801996 -4 L 117.05120779753479 -4 Z"/></g></svg>